<svg width="44" height="44" viewBox="0 0 44 44" fill="none" xmlns="http://www.w3.org/2000/svg">
<g clip-path="url(#clip0_13_323)">
<path d="M30.8922 0H13.1078C5.88015 0 0 5.88015 0 13.1078V30.8922C0 38.1199 5.88015 44 13.1078 44H30.8922C38.1199 44 44 38.1199 44 30.8922V13.1078C43.9999 5.88015 38.1198 0 30.8922 0ZM39.5736 30.8922C39.5736 35.6867 35.6867 39.5736 30.8922 39.5736H13.1078C8.31325 39.5736 4.4264 35.6867 4.4264 30.8922V13.1078C4.4264 8.31317 8.31325 4.4264 13.1078 4.4264H30.8922C35.6867 4.4264 39.5736 8.31317 39.5736 13.1078V30.8922Z" fill="url(#paint0_linear_13_323)"/>
<path d="M22.0001 10.62C15.7252 10.62 10.6201 15.725 10.6201 21.9999C10.6201 28.2747 15.7252 33.3798 22.0001 33.3798C28.275 33.3798 33.38 28.2748 33.38 21.9999C33.38 15.725 28.275 10.62 22.0001 10.62ZM22.0001 28.9535C18.1597 28.9535 15.0465 25.8403 15.0465 22C15.0465 18.1596 18.1598 15.0464 22.0001 15.0464C25.8405 15.0464 28.9537 18.1596 28.9537 22C28.9537 25.8403 25.8404 28.9535 22.0001 28.9535Z" fill="url(#paint1_linear_13_323)"/>
<path d="M33.4016 13.4325C34.9076 13.4325 36.1284 12.2116 36.1284 10.7057C36.1284 9.19971 34.9076 7.97888 33.4016 7.97888C31.8956 7.97888 30.6748 9.19971 30.6748 10.7057C30.6748 12.2116 31.8956 13.4325 33.4016 13.4325Z" fill="url(#paint2_linear_13_323)"/>
</g>
<defs>
<linearGradient id="paint0_linear_13_323" x1="22" y1="43.8718" x2="22" y2="0.341739" gradientUnits="userSpaceOnUse">
<stop stop-color="#9144BB"/>
<stop offset="0.3" stop-color="#9144BB"/>
<stop offset="0.6" stop-color="#9144BB"/>
<stop offset="1" stop-color="#9144BB"/>
</linearGradient>
<linearGradient id="paint1_linear_13_323" x1="22.0001" y1="43.8718" x2="22.0001" y2="0.341701" gradientUnits="userSpaceOnUse">
<stop stop-color="#9144BB"/>
<stop offset="0.3" stop-color="#9144BB"/>
<stop offset="0.6" stop-color="#9144BB"/>
<stop offset="1" stop-color="#9144BB"/>
</linearGradient>
<linearGradient id="paint2_linear_13_323" x1="33.4016" y1="43.8719" x2="33.4016" y2="0.341785" gradientUnits="userSpaceOnUse">
<stop stop-color="#9144BB"/>
<stop offset="0.3" stop-color="#9144BB"/>
<stop offset="0.6" stop-color="#9144BB"/>
<stop offset="1" stop-color="#9144BB"/>
</linearGradient>
<clipPath id="clip0_13_323">
<rect width="44" height="44" fill="white"/>
</clipPath>
</defs>
</svg>
