<svg width="44" height="44" viewBox="0 0 44 44" fill="none" xmlns="http://www.w3.org/2000/svg">
<g clip-path="url(#clip0_15_331)">
<path d="M30.4175 13.805C30.4258 13.805 30.4368 13.805 30.4478 13.805C30.7351 13.805 31.0019 13.8944 31.2205 14.0484L31.2164 14.0457C31.3759 14.1845 31.4831 14.3798 31.5093 14.5998V14.6039C31.5368 14.7717 31.5519 14.9642 31.5519 15.1608C31.5519 15.2502 31.5491 15.3382 31.5423 15.4262V15.4138C31.2329 18.6712 29.8909 26.5705 29.2089 30.217C28.9201 31.7612 28.3523 32.2782 27.8023 32.3277C26.6074 32.439 25.6999 31.5384 24.5421 30.7794C22.7299 29.59 21.7055 28.8503 19.9469 27.6912C17.9133 26.3533 19.2319 25.6149 20.3896 24.4132C20.6935 24.0969 25.9611 19.305 26.0643 18.8705C26.0698 18.8444 26.0725 18.8155 26.0725 18.7853C26.0725 18.678 26.0326 18.5804 25.968 18.5062C25.8965 18.4594 25.8071 18.4333 25.7136 18.4333C25.6518 18.4333 25.5926 18.4457 25.5376 18.4663L25.5404 18.4649C25.3589 18.5062 22.4641 20.4193 16.8559 24.2042C16.244 24.6868 15.4713 24.992 14.6298 25.0278H14.6215C13.4294 24.8834 12.3473 24.618 11.3201 24.2399L11.4219 24.2729C10.1321 23.8522 9.10777 23.6308 9.19577 22.9185C9.24252 22.5482 9.7531 22.1692 10.7275 21.7814C16.7298 19.1662 20.7325 17.4424 22.7354 16.61C24.945 15.4372 27.5066 14.4719 30.2003 13.8463L30.4161 13.8037L30.4175 13.805ZM21.9035 1.40942C10.4883 1.43692 1.24414 10.6975 1.24414 22.1169C1.24414 33.5528 10.5144 42.8244 21.9516 42.8244C33.3889 42.8244 42.6591 33.5542 42.6591 22.1169C42.6591 10.6975 33.415 1.43692 22.0025 1.40942H21.9998C21.9677 1.40942 21.9356 1.40942 21.9035 1.40942Z" fill="#9144BB" stroke="#9144BB"/>
</g>
<defs>
<clipPath id="clip0_15_331">
<rect width="44" height="44" fill="white"/>
</clipPath>
</defs>
</svg>
